<svg id="eGW1XnbOmFw1" xmlns="http://www.w3.org/2000/svg" xmlns:xlink="http://www.w3.org/1999/xlink" viewBox="0 0 170 170" shape-rendering="geometricPrecision" text-rendering="geometricPrecision"><style><![CDATA[#eGW1XnbOmFw2_to {animation: eGW1XnbOmFw2_to__to 3000ms linear infinite normal forwards}@keyframes eGW1XnbOmFw2_to__to { 0% {transform: translate(52.663503px,87.350301px)} 13.333333% {transform: translate(52.663503px,87.350301px)} 20% {transform: translate(72.663503px,87.350301px)} 60% {transform: translate(72.663503px,87.350301px)} 66.666667% {transform: translate(52.663503px,87.350301px)} 100% {transform: translate(52.663503px,87.350301px)}} #eGW1XnbOmFw3_ts {animation: eGW1XnbOmFw3_ts__ts 3000ms linear infinite normal forwards}@keyframes eGW1XnbOmFw3_ts__ts { 0% {transform: translate(52.48102px,113.116px) scale(1,1)} 3.333333% {transform: translate(52.48102px,113.116px) scale(1,1)} 6.666667% {transform: translate(52.48102px,113.116px) scale(1,0)} 10% {transform: translate(52.48102px,113.116px) scale(1,1)} 20% {transform: translate(52.48102px,113.116px) scale(1,1)} 23.333333% {transform: translate(52.48102px,113.116px) scale(1,0)} 26.666667% {transform: translate(52.48102px,113.116px) scale(1,1)} 43.666667% {transform: translate(52.48102px,113.116px) scale(1,1)} 47% {transform: translate(52.48102px,113.116px) scale(1,0)} 50.333333% {transform: translate(52.48102px,113.116px) scale(1,1)} 70% {transform: translate(52.48102px,113.116px) scale(1,1)} 73.333333% {transform: translate(52.48102px,113.116px) scale(1,0)} 76.666667% {transform: translate(52.48102px,113.116px) scale(1,1)} 100% {transform: translate(52.48102px,113.116px) scale(1,1)}} #eGW1XnbOmFw7_tr {animation: eGW1XnbOmFw7_tr__tr 3000ms linear infinite normal forwards}@keyframes eGW1XnbOmFw7_tr__tr { 0% {transform: translate(84.515004px,85px) rotate(0deg)} 100% {transform: translate(84.515004px,85px) rotate(360deg)}}]]></style><g id="eGW1XnbOmFw2_to" transform="translate(52.663503,87.350301)"><g id="eGW1XnbOmFw2" transform="translate(-52.663499,-103.68)"><g id="eGW1XnbOmFw3_ts" transform="translate(52.48102,113.116) scale(1,1)"><g id="eGW1XnbOmFw3" transform="translate(-52.48102,-113.116)" clip-rule="evenodd"><path id="eGW1XnbOmFw4" d="M38.737,99.735L38.738,99.809C38.738,107.153,35.618,113.116,31.775,113.116C27.932,113.116,24.812,107.153,24.812,99.809C24.812,92.465,27.932,86.503,31.775,86.503C34.131,86.503,36.216,88.744,37.476,92.173C35.629,92.429,34.203,94.034,34.203,95.973C34.203,98.09,35.902,99.809,37.995,99.809C38.249,99.809,38.497,99.784,38.737,99.735Z" clip-rule="evenodd" fill="rgb(255,185,117)" fill-rule="evenodd" stroke="none" stroke-width="1" stroke-linejoin="round" stroke-miterlimit="2"/><path id="eGW1XnbOmFw5" d="M80.515,99.623C80.515,99.684,80.515,99.747,80.515,99.809C80.515,107.153,77.396,113.116,73.553,113.116C69.71,113.116,66.59,107.153,66.59,99.809C66.59,92.465,69.71,86.503,73.553,86.503C75.901,86.503,77.98,88.73,79.241,92.139C77.197,92.194,75.553,93.891,75.553,95.973C75.553,98.09,77.252,99.809,79.345,99.809C79.753,99.809,80.146,99.744,80.515,99.623Z" clip-rule="evenodd" fill="rgb(255,185,117)" fill-rule="evenodd" stroke="none" stroke-width="1" stroke-linejoin="round" stroke-miterlimit="2"/></g></g><path id="eGW1XnbOmFw6" d="M61.695,115.651C61.635,118.53,57.611,120.857,52.664,120.857C47.716,120.857,43.693,118.53,43.633,115.651C44.498,113.611,57.58,112.785,61.695,115.651Z" clip-rule="evenodd" fill="rgb(255,185,117)" fill-rule="evenodd" stroke="none" stroke-width="1" stroke-linejoin="round" stroke-miterlimit="2"/></g></g><g id="eGW1XnbOmFw7_tr" transform="translate(84.515004,85) rotate(0)"><path id="eGW1XnbOmFw7" d="M3.87164,103.46959C3.87164,53.06267,42.66989,11.71749,92.03266,7.66752L92.03266,3.06228L107.96735,12.26218L92.03266,21.46208L92.03266,17.60116C48.14291,21.62191,13.76789,58.53142,13.76789,103.46959C13.76789,151.09399,52.37532,189.70119,100.00001,189.70119C147.62469,189.70119,186.23213,151.09399,186.23213,103.46959C186.23213,56.88278,149.28865,18.92453,103.09965,17.29266L111.8127,12.26218L103.39256,7.40081C154.91165,9.18775,196.12837,51.51537,196.12837,103.46959C196.12837,156.55936,153.09024,199.59712,100.00001,199.59712C46.90978,199.59712,3.87165,156.55936,3.87165,103.46959L3.87164,103.46959Z" transform="scale(0.812769,0.812769) translate(-100.000005,-101.329701)" fill="rgb(255,185,117)" stroke="rgba(255,185,117,0)" stroke-width="0"/></g></svg>